<?xml version="1.0" encoding="UTF-8" standalone="no"?>
<!-- Copyright 2017 mathsisfun.com -->
<svg xmlns="http://www.w3.org/2000/svg" width="451.4" height="117.6" version="1.1">
<defs>
</defs>
<g transform="translate(1192.1215,-123.71211)">
<text x="-991.9" y="218.9" style="font-family:'Times New Roman'; font-size:62px; overflow:visible; fill:#121513; stroke-width:6.5; stroke-dasharray:26, 6.5;">Σ</text>
<text x="-977.4" y="240.4" style="font-family:'Comic Sans MS'; font-size:22.5px; overflow:visible; fill:#0197fd; stroke-width:6.5; stroke-dasharray:26, 6.5;">=1</text>
<text x="-977.2" y="174.3" style="font-family:'Comic Sans MS'; font-size:22.5px; overflow:visible; fill:#0197fd; stroke-width:6.5; stroke-dasharray:26, 6.5;">4</text>
<text x="-994.4" y="239.9" style="font-family:'Comic Sans MS'; font-size:25px; font-style:italic; overflow:visible; fill:#0197fd; stroke-width:6.5; stroke-dasharray:26, 6.5;">n</text>
<text x="-949.2" y="206.7" style="font-family:'Comic Sans MS'; font-size:35px; font-style:italic; overflow:visible; fill:#fdca01; stroke-width:6.5; stroke-dasharray:26, 6.5;">n</text>
<text x="-905.2" y="206.6" style="font-family:'Comic Sans MS'; font-size:24.7px; overflow:visible; fill:#c4a000; stroke-width:6.5; stroke-dasharray:26, 6.5;">= 1+2+3+4 = 10</text>
<text x="-905.7" y="155.5" style="font-family:'Comic Sans MS'; font-size:18.9px; overflow:visible; fill:#fdca01; stroke-width:6.5; stroke-dasharray:26, 6.5;">what to sum</text>
<text x="-1192.4" y="136.1" style="font-family:'Comic Sans MS'; font-size:15.7px; overflow:visible; fill:#0197fd; stroke-width:6.5; stroke-dasharray:26, 6.5;">start at this value</text>
<text x="-1133.2" y="156.7" style="font-family:'Comic Sans MS'; font-size:15.7px; overflow:visible; fill:#0197fd; stroke-width:6.5; stroke-dasharray:26, 6.5;">go to this value</text>
<path style="overflow:visible; fill:#fdca01; stroke-width:6.5; stroke-dasharray:26, 6.5;" d="m -912.2,154.1 c -3.6,0.2 -7.1,1.5 -10.1,3.5 -1.3,0.8 -2.4,1.8 -3.5,2.9 0.4,-0.4 2.1,-2.1 0.9,-0.9 -1.9,2 -3.6,4.2 -4.7,6.7 -0.8,2 -1.4,4 -1.8,6.1 -1,0.3 -2,0.7 -3,1 0.9,-3.3 1.6,-6.7 3.5,-9.7 1.9,-2.9 4.3,-5.5 7,-7.7 3.5,-2.7 7.9,-4.4 12.3,-4.9 0.9,-0.2 0.8,0.2 0.5,0.8 -0.3,0.7 -0.7,1.4 -1,2.1 z"/>
<path style="overflow:visible; fill:#fdca01; stroke-width:6.5; stroke-dasharray:26, 6.5;" d="m -935.3,163.3 c 0.1,0.1 0.2,0.3 0.3,0.4 0,0.2 0.2,0.3 0.2,0.5 0,0.2 0.2,0.3 0.2,0.5 0,0.2 0.2,0.4 0.2,0.6 0,0.2 0.2,0.4 0.2,0.6 0,0.2 0.1,0.4 0.2,0.6 0,0.2 0.1,0.4 0.2,0.7 0,0.2 0.1,0.5 0.2,0.7 0,0.2 0.1,0.5 0.2,0.7 0,0.2 0,0.5 0.1,0.7 0,0.2 0,0.4 0.1,0.7 0,0.2 0,0.4 0.1,0.6 0,0.2 0,0.4 0,0.7 0,0.2 0,0.4 0,0.6 0,0.2 0,0.4 0,0.6 0,0.2 0,0.3 0,0.5 0,0.2 0,0.3 0,0.5 0,0.1 0,0.3 0,0.4 0,0.1 0,0.3 0,0.4 0,0.1 0,0.3 0,0.4 0,0.1 0,0.2 0,0.4 0,0.1 0,0.2 0,0.3 0,0.1 0,0.2 0,0.3 0,0 0,0.2 0,0.3 0,0 0,0.2 0,0.2 0,0 0,0.1 0,0.2 0,0 -0,0 -0,0 -0,-0.1 -0.2,-0.3 -0.3,-0.4 -0,-0 -0,-0 -0,-0 -0.2,-0.1 -0.4,-0.2 -0.6,-0.3 -0,-0 -0,-0 -0.1,-0 -2.2,2.1 -2.2,2.4 -1.7,1.7 0,-0 0.1,-0.2 0.2,-0.3 0,-0.1 0.1,-0.2 0.2,-0.3 0,-0.1 0.1,-0.3 0.2,-0.4 0,-0.1 0.1,-0.3 0.2,-0.4 0,-0.1 0.1,-0.3 0.2,-0.4 0,-0.1 0.2,-0.3 0.2,-0.4 0,-0.1 0.2,-0.3 0.2,-0.4 0,-0.1 0.2,-0.3 0.2,-0.4 0,-0.1 0.2,-0.3 0.3,-0.4 0,-0.1 0.2,-0.3 0.3,-0.4 0,-0.2 0.2,-0.3 0.3,-0.5 0.1,-0.2 0.2,-0.3 0.3,-0.5 0.1,-0.2 0.2,-0.3 0.4,-0.5 0.1,-0.1 0.2,-0.3 0.4,-0.4 0.7,-0.8 1.3,-1.5 2.1,-2.1 0.1,-0.1 0.3,-0.3 0.4,-0.4 0.1,-0.1 0.3,-0.2 0.4,-0.3 0.1,-0.1 0.2,-0.2 0.4,-0.3 0.1,-0.1 0.3,-0.2 0.4,-0.3 0.1,-0 0.2,-0.2 0.4,-0.3 0.1,-0 0.3,-0.2 0.4,-0.2 0.1,-0 0.2,-0.2 0.4,-0.2 0.1,-0 0.3,-0.1 0.4,-0.2 0.1,-0 0.3,-0.1 0.4,-0.2 0.1,-0 0.3,-0.1 0.4,-0.2 0.1,-0 0.2,-0.1 0.4,-0.2 0.1,-0 0.2,-0.1 0.3,-0.2 0,-0 0.2,-0 0.3,-0.1 0,-0 0.2,-0 0.3,-0.1 0,-0 0,-0 0,-0 l -0.8,3.1 c -0,0 -0,0 -0,0 -0,0 -0.2,0 -0.3,0.1 -0,0 -0.2,0 -0.3,0.1 -0.1,0 -0.2,0.1 -0.3,0.1 -0.1,0 -0.2,0.1 -0.3,0.2 -0.1,0 -0.2,0.1 -0.4,0.2 -0.1,0 -0.2,0.1 -0.4,0.2 -0.1,0 -0.2,0.1 -0.3,0.2 -0.1,0 -0.2,0.2 -0.3,0.2 -0.1,0 -0.2,0.2 -0.3,0.2 -0.1,0 -0.2,0.2 -0.3,0.3 -0.1,0 -0.2,0.2 -0.3,0.3 -0.1,0.1 -0.2,0.2 -0.3,0.3 -0.1,0.1 -0.2,0.2 -0.4,0.3 -0.1,0.1 -0.3,0.2 -0.4,0.4 -0.6,0.7 2.5,-2.4 1.3,-1.3 -0.1,0.1 -0.3,0.3 -0.4,0.4 -0.1,0.1 -0.2,0.3 -0.4,0.4 -0.1,0.1 -0.2,0.3 -0.3,0.4 -0.1,0.1 -0.2,0.3 -0.3,0.4 -0,0.1 -0.2,0.3 -0.3,0.4 -0,0.1 -0.2,0.3 -0.3,0.4 -0,0.1 -0.2,0.3 -0.2,0.4 -0,0.1 -0.2,0.3 -0.2,0.4 -0,0.1 -0.2,0.3 -0.2,0.4 -0,0.1 -0.2,0.3 -0.2,0.4 -0,0.1 -0.1,0.3 -0.2,0.4 -0,0.1 -0.1,0.3 -0.2,0.4 -0,0.1 -0.1,0.2 -0.2,0.4 -0,0.1 -0.1,0.2 -0.2,0.4 -0.7,1.2 -1.6,2.8 -2.8,1.8 -0.2,-0.2 -0.3,-0.3 -0.4,-0.5 -0,-0 -0,-0.1 -0,-0.2 -0,-0 -0,-0.1 -0,-0.2 -0,-0 -0,-0.2 -0,-0.2 -0,-0 -0,-0.2 -0,-0.3 -0,-0.1 -0,-0.2 -0,-0.3 -0,-0.1 -0,-0.2 -0,-0.3 -0,-0.1 -0,-0.2 -0,-0.4 -0,-0.1 -0,-0.3 -0,-0.4 -0,-0.1 -0,-0.3 -0,-0.4 -0,-0.1 -0,-0.3 -0,-0.4 -0,-0.2 -0,-0.3 -0,-0.5 -0,-0.2 -0,-0.3 -0,-0.5 -0,-0.2 -0,-0.4 -0,-0.6 -0,-0.2 -0,-0.4 -0,-0.6 -0,-0.2 -0,-0.4 -0,-0.6 -0,-0.2 -0,-0.4 -0,-0.6 -0,-0.2 -0,-0.4 -0.1,-0.7 -0,-0.2 -0,-0.4 -0.1,-0.7 -0,-0.2 -0,-0.4 -0.1,-0.7 -0,-0.2 -0.1,-0.4 -0.2,-0.6 -0,-0.2 -0.1,-0.4 -0.2,-0.6 -0,-0.2 -0.1,-0.4 -0.2,-0.6 -0,-0.2 -0.1,-0.4 -0.2,-0.6 -0,-0.2 -0.1,-0.3 -0.2,-0.5 -0,-0.2 -0.1,-0.3 -0.2,-0.4 -0,-0.1 -0.1,-0.3 -0.2,-0.4 -0,-0.1 -0.1,-0.2 -0.2,-0.3 l 2.4,-2.1 z"/>
<path style="overflow:visible; fill:#0197fd; stroke-width:6.5; stroke-dasharray:26, 6.5;" d="m -1014.2,152.1 c 3.7,-0 7.2,0.9 10.7,1.8 3.7,1.1 7.4,2.3 11,4 2.3,1 4.5,2.3 6.5,4 -0.7,0.8 -1.4,1.5 -2.2,2.3 -1.8,-1.6 -3.9,-2.8 -6.1,-3.7 -3.4,-1.6 -7,-2.7 -10.6,-3.8 -3.5,-0.9 -7,-1.8 -10.6,-1.6 0.4,-1 0.9,-1.9 1.3,-2.9 z"/>
<path style="overflow:visible; fill:#0197fd; stroke-width:6.5; stroke-dasharray:26, 6.5;" d="m -988.2,151 c -0.4,2.7 0.5,5.3 1.6,7.7 0.6,1.4 1.6,2.7 2.2,4.2 0.2,1.5 -1.7,2.5 -3,2 -2.8,-0.7 -5.7,-1.5 -8.6,-0.9 -1.5,0.3 -3.1,0.7 -4.5,1.2 0.3,-1 0.6,-2.1 1,-3.1 1.7,-0.4 3.4,-1 5.1,-1.1 3,-0.4 5.9,0.6 8.8,1.1 -0.5,-0.6 -2.4,0.8 -1.8,1.8 0.4,0.6 -0.6,-1.2 -0.8,-1.6 -1.7,-3.1 -3.1,-6.6 -2.9,-10.2 1,-0.4 2,-0.7 3,-1.1 z"/>
<g transform="matrix(0.61965812,0,0,0.61965812,-449.6958,69.41757)">
<path style="overflow:visible; fill:#0197fd; stroke-width:6.5; stroke-dasharray:26, 6.5;" d="m -922.6,249.7 c 5.9,6 14,9.5 22,11.8 -2.2,8.4 -10.4,0.7 -15.4,-0.9 -3.9,-3.3 -14.7,-5.8 -6.6,-10.9 z"/>
<path style="overflow:visible; fill:#0197fd; stroke-width:6.5; stroke-dasharray:26, 6.5;" d="m -926,272.2 c 7.4,-5.5 16.2,-8.4 25.2,-10.4 -0.2,4.9 -3.9,6.1 -8.2,6.6 -5.8,-0.5 -15.9,9.8 -17.3,7.2 0.1,-1.1 0.2,-2.2 0.4,-3.4 z"/>
<path style="overflow:visible; fill:#0197fd; stroke-width:6.5; stroke-dasharray:26, 6.5;" d="m -1152.9,113.7 c 6.9,24.2 19.2,46.9 34.5,66.8 31.7,37.4 76.9,62.8 125.1,71 29.9,4.9 60,8.7 90.2,10.6 -1.8,7.8 -11.8,1.4 -17.3,2.5 -29.2,-3.6 -58.5,-6.8 -87.3,-12.9 -45.7,-10.2 -87.6,-36.4 -117,-72.8 -13.9,-18.9 -25.1,-40 -32.6,-62.3 1.4,-1 2.8,-1.9 4.2,-2.9 z"/>
</g>
</g>
</svg>
